<mxfile host="app.diagrams.net" modified="2023-08-14T14:54:31.915Z" agent="Mozilla/5.0 (X11; Ubuntu; Linux x86_64; rv:109.0) Gecko/20100101 Firefox/115.0" etag="g0D1cHGExSsGFKwpXtMH" version="21.6.8" type="github">
  <diagram name="Page-1" id="XJg_VnnXPko3xcPZaOsw">
    <mxGraphModel dx="880" dy="483" grid="1" gridSize="10" guides="1" tooltips="1" connect="1" arrows="1" fold="1" page="1" pageScale="1" pageWidth="850" pageHeight="1100" math="0" shadow="0">
      <root>
        <mxCell id="0" />
        <mxCell id="1" parent="0" />
        <mxCell id="RPmpOCOfxd3_DFciG1X6-10" value="" style="edgeStyle=orthogonalEdgeStyle;rounded=0;orthogonalLoop=1;jettySize=auto;html=1;" edge="1" parent="1" source="RPmpOCOfxd3_DFciG1X6-3" target="RPmpOCOfxd3_DFciG1X6-19">
          <mxGeometry relative="1" as="geometry">
            <mxPoint x="480" y="415" as="targetPoint" />
          </mxGeometry>
        </mxCell>
        <mxCell id="RPmpOCOfxd3_DFciG1X6-12" value="" style="edgeStyle=orthogonalEdgeStyle;rounded=0;orthogonalLoop=1;jettySize=auto;html=1;" edge="1" parent="1" source="RPmpOCOfxd3_DFciG1X6-3" target="RPmpOCOfxd3_DFciG1X6-11">
          <mxGeometry relative="1" as="geometry" />
        </mxCell>
        <mxCell id="RPmpOCOfxd3_DFciG1X6-3" value="3 Werkzeugkasten" style="whiteSpace=wrap;html=1;aspect=fixed;" vertex="1" parent="1">
          <mxGeometry x="280" y="280" width="120" height="120" as="geometry" />
        </mxCell>
        <mxCell id="RPmpOCOfxd3_DFciG1X6-8" value="" style="edgeStyle=orthogonalEdgeStyle;rounded=0;orthogonalLoop=1;jettySize=auto;html=1;" edge="1" parent="1" source="RPmpOCOfxd3_DFciG1X6-4" target="RPmpOCOfxd3_DFciG1X6-6">
          <mxGeometry relative="1" as="geometry" />
        </mxCell>
        <mxCell id="RPmpOCOfxd3_DFciG1X6-9" value="" style="edgeStyle=orthogonalEdgeStyle;rounded=0;orthogonalLoop=1;jettySize=auto;html=1;" edge="1" parent="1" source="RPmpOCOfxd3_DFciG1X6-4" target="RPmpOCOfxd3_DFciG1X6-3">
          <mxGeometry relative="1" as="geometry" />
        </mxCell>
        <mxCell id="RPmpOCOfxd3_DFciG1X6-4" value="4 Oberstes_Regal" style="whiteSpace=wrap;html=1;aspect=fixed;" vertex="1" parent="1">
          <mxGeometry x="150" y="140" width="110" height="110" as="geometry" />
        </mxCell>
        <mxCell id="RPmpOCOfxd3_DFciG1X6-7" value="" style="edgeStyle=orthogonalEdgeStyle;rounded=0;orthogonalLoop=1;jettySize=auto;html=1;" edge="1" parent="1" source="RPmpOCOfxd3_DFciG1X6-5" target="RPmpOCOfxd3_DFciG1X6-4">
          <mxGeometry relative="1" as="geometry" />
        </mxCell>
        <mxCell id="RPmpOCOfxd3_DFciG1X6-5" value="5 Abstellkammer" style="whiteSpace=wrap;html=1;aspect=fixed;" vertex="1" parent="1">
          <mxGeometry x="10" y="140" width="110" height="110" as="geometry" />
        </mxCell>
        <mxCell id="RPmpOCOfxd3_DFciG1X6-6" value="6 Klebeband" style="whiteSpace=wrap;html=1;aspect=fixed;" vertex="1" parent="1">
          <mxGeometry x="165" y="300" width="80" height="80" as="geometry" />
        </mxCell>
        <mxCell id="RPmpOCOfxd3_DFciG1X6-11" value="&lt;div&gt;&lt;br&gt;&lt;/div&gt;&lt;div&gt;1 Hammer&lt;/div&gt;&lt;div&gt;&lt;br&gt;&lt;/div&gt;" style="whiteSpace=wrap;html=1;" vertex="1" parent="1">
          <mxGeometry x="480" y="280" width="80" height="60" as="geometry" />
        </mxCell>
        <mxCell id="RPmpOCOfxd3_DFciG1X6-13" value="&lt;div&gt;Oberstes_Regal&lt;/div&gt;&lt;div&gt;parent: 5&lt;/div&gt;&lt;div&gt;children: [ 6, 3 ]&lt;br&gt;&lt;/div&gt;" style="whiteSpace=wrap;html=1;" vertex="1" parent="1">
          <mxGeometry x="680" y="120" width="120" height="60" as="geometry" />
        </mxCell>
        <mxCell id="RPmpOCOfxd3_DFciG1X6-14" value="&lt;div&gt;Abstellkammer&lt;/div&gt;&lt;div&gt;parent: None&lt;/div&gt;&lt;div&gt;children: [ 4 ]&lt;br&gt;&lt;/div&gt;" style="whiteSpace=wrap;html=1;" vertex="1" parent="1">
          <mxGeometry x="680" y="50" width="120" height="60" as="geometry" />
        </mxCell>
        <mxCell id="RPmpOCOfxd3_DFciG1X6-15" value="&lt;div&gt;Klebeband&lt;/div&gt;&lt;div&gt;parent: 4&lt;/div&gt;&lt;div&gt;children: [&amp;nbsp; ]&lt;br&gt;&lt;/div&gt;" style="whiteSpace=wrap;html=1;" vertex="1" parent="1">
          <mxGeometry x="680" y="190" width="120" height="60" as="geometry" />
        </mxCell>
        <mxCell id="RPmpOCOfxd3_DFciG1X6-16" value="&lt;div&gt;Werkzeugkasten&lt;/div&gt;&lt;div&gt;parent: 4&lt;/div&gt;&lt;div&gt;children: [ 1, 2 ]&lt;br&gt;&lt;/div&gt;" style="whiteSpace=wrap;html=1;" vertex="1" parent="1">
          <mxGeometry x="680" y="260" width="120" height="60" as="geometry" />
        </mxCell>
        <mxCell id="RPmpOCOfxd3_DFciG1X6-17" value="&lt;div&gt;Hammer&lt;/div&gt;&lt;div&gt;parent: 3&lt;/div&gt;&lt;div&gt;children: [&amp;nbsp; ]&lt;br&gt;&lt;/div&gt;" style="whiteSpace=wrap;html=1;" vertex="1" parent="1">
          <mxGeometry x="680" y="330" width="120" height="60" as="geometry" />
        </mxCell>
        <mxCell id="RPmpOCOfxd3_DFciG1X6-18" value="&lt;div&gt;Zange&lt;/div&gt;&lt;div&gt;parent: 3&lt;/div&gt;&lt;div&gt;children: [&amp;nbsp; ]&lt;br&gt;&lt;/div&gt;" style="whiteSpace=wrap;html=1;" vertex="1" parent="1">
          <mxGeometry x="680" y="400" width="120" height="60" as="geometry" />
        </mxCell>
        <mxCell id="RPmpOCOfxd3_DFciG1X6-19" value="&lt;div&gt;&lt;br&gt;&lt;/div&gt;&lt;div&gt;2 Zange&lt;/div&gt;&lt;div&gt;&lt;br&gt;&lt;/div&gt;" style="whiteSpace=wrap;html=1;" vertex="1" parent="1">
          <mxGeometry x="480" y="360" width="80" height="60" as="geometry" />
        </mxCell>
        <mxCell id="RPmpOCOfxd3_DFciG1X6-20" value="" style="rounded=0;whiteSpace=wrap;html=1;" vertex="1" parent="1">
          <mxGeometry x="260" y="230" width="120" height="60" as="geometry" />
        </mxCell>
      </root>
    </mxGraphModel>
  </diagram>
</mxfile>
